<svg xmlns="http://www.w3.org/2000/svg" viewBox="0 0 256 256" role="img" aria-label="RedeVitima">
  <defs>
    <linearGradient id="bg" x1="0" y1="0" x2="1" y2="1">
      <stop offset="0" stop-color="#facc15"/>
      <stop offset="0.32" stop-color="#1d4ed8"/>
      <stop offset="0.68" stop-color="#15803d"/>
      <stop offset="1" stop-color="#dc2626"/>
    </linearGradient>
    <filter id="shadow" x="-20%" y="-20%" width="140%" height="150%">
      <feDropShadow dx="0" dy="4" stdDeviation="4" flood-color="#0f172a" flood-opacity="0.28"/>
    </filter>
    <clipPath id="flagClip">
      <circle cx="128" cy="90" r="28"/>
    </clipPath>
  </defs>

  <rect x="12" y="12" width="232" height="232" rx="56" fill="url(#bg)"/>

  <path
    d="M128 34c-30 0-54 24-54 54 0 40 54 112 54 112s54-72 54-112c0-30-24-54-54-54z"
    fill="#ffffff"
    filter="url(#shadow)"
  />

  <circle cx="128" cy="90" r="32" fill="#e2e8f0"/>
  <g clip-path="url(#flagClip)">
    <rect x="100" y="62" width="56" height="28" fill="#1d4ed8"/>
    <rect x="100" y="90" width="56" height="28" fill="#ffffff"/>

    <path d="M106 92c7 9 15 13 22 13s15-4 22-13" fill="none" stroke="#22c55e" stroke-width="3.5" stroke-linecap="round"/>
    <path d="M108 92c6 7 13 10 20 10s14-3 20-10" fill="none" stroke="#facc15" stroke-width="3" stroke-linecap="round"/>
    <path d="M110 92c5 5 11 8 18 8s13-3 18-8" fill="none" stroke="#dc2626" stroke-width="2.6" stroke-linecap="round"/>

    <circle cx="128" cy="96" r="5" fill="#facc15"/>
    <path d="M128 70v13M122 76h12" stroke="#dc2626" stroke-width="2.5" stroke-linecap="round"/>
    <path d="M144 74l1.8 4.2 4.5.4-3.4 3 1 4.4-3.9-2.3-3.8 2.3 1-4.4-3.4-3 4.4-.4z" fill="#facc15"/>
  </g>

  <circle cx="128" cy="90" r="28" fill="none" stroke="#0f172a" stroke-opacity="0.18" stroke-width="1.5"/>
</svg>
