<svg xmlns="http://www.w3.org/2000/svg" viewBox="0 0 512 512" role="img" aria-label="ObservaATT PE">
  <defs>
    <clipPath id="roundMask">
      <rect x="28" y="28" width="456" height="456" rx="108"/>
    </clipPath>
  </defs>

  <g clip-path="url(#roundMask)">
    <rect width="512" height="512" fill="#0B2F8A"/>
    <polygon points="-60,512 124,512 572,0 388,0" fill="#16A34A"/>
    <polygon points="58,512 242,512 690,0 506,0" fill="#FACC15"/>
    <polygon points="176,512 360,512 808,0 624,0" fill="#DC2626"/>
  </g>

  <path d="M256 455L187 338C162 297 144 264 144 229C144 163 190 116 256 116C322 116 368 163 368 229C368 264 350 297 325 338L256 455Z" fill="#F8FAFC"/>

  <circle cx="256" cy="235" r="108" fill="#FFFFFF" stroke="#0F172A" stroke-width="8"/>
  <circle cx="256" cy="200" r="16" fill="#FACC15"/>

  <path d="M200 252C216 279 237 292 256 292C275 292 296 279 312 252" fill="none" stroke="#16A34A" stroke-width="10" stroke-linecap="round"/>
  <path d="M206 266C222 286 241 297 256 297C271 297 290 286 306 266" fill="none" stroke="#FACC15" stroke-width="9" stroke-linecap="round"/>
  <path d="M212 280C228 296 245 305 256 305C267 305 284 296 300 280" fill="none" stroke="#DC2626" stroke-width="8" stroke-linecap="round"/>
</svg>
